#N canvas 0 23 1680 982 10;
#X declare -lib Gem;
#X obj 294 89 cnv 15 416 210 empty empty T-Stick 20 12 0 20 -228856
-66577 0;
#X obj 48 650 array set Touch;
#X obj 141 688 vsl 45 135 -1 1 0 0 empty empty AccelX 0 -9 0 10 -262144
-1 -1 6907 1;
#X obj 191 688 vsl 45 135 -1 1 0 0 empty empty AccelY 0 -9 0 10 -262144
-1 -1 6775 1;
#X obj 241 688 vsl 45 135 -1 1 0 0 empty empty AccelZ 0 -9 0 10 -262144
-1 -1 6858 1;
#X obj 291 688 vsl 45 135 -1 1 0 0 empty empty GyroX 0 -9 0 10 -262144
-1 -1 6714 1;
#X obj 341 688 vsl 45 135 -1 1 0 0 empty empty GyroY 0 -9 0 10 -262144
-1 -1 6711 1;
#X obj 391 688 vsl 45 135 -1 1 0 0 empty empty GyroZ 0 -9 0 10 -262144
-1 -1 6701 1;
#X obj 591 688 vsl 45 135 0 1 0 0 empty empty Pressure 0 -9 0 10 -262144
-1 -1 8007 1;
#X obj 641 688 vsl 45 135 0 1 0 0 empty empty Piezo 0 -9 0 10 -262144
-1 -1 0 1;
#X obj 441 688 vsl 45 135 -1 1 0 0 empty empty MagX 0 -9 0 10 -262144
-1 -1 6781 1;
#X obj 491 688 vsl 45 135 -1 1 0 0 empty empty MagY 0 -9 0 10 -262144
-1 -1 6736 1;
#X obj 541 688 vsl 45 135 -1 1 0 0 empty empty MagZ 0 -9 0 10 -262144
-1 -1 6591 1;
#X obj 898 739 timer;
#X floatatom 898 763 8 0 0 0 - - -;
#X obj 898 714 t b b;
#X obj 898 689 r rawtimer;
#N canvas 0 22 450 278 (subpatch) 0;
#X array rawtime 100 float 1;
#A 0 7.25624 5.80499 7.25624 2.90249 5.80499 7.25624 2.90249 7.25624
7.25624 5.80499 4.35374 7.25624 4.35374 5.80499 4.35374 4.35374 7.25624
5.80499 5.80499 7.25624 4.35374 5.80499 5.80499 5.80499 2.90249 8.70748
7.25624 5.80499 4.35374 5.80499 4.35374 5.80499 5.80499 5.80499 4.35374
7.25624 5.80499 7.25624 4.35374 5.80499 5.80499 5.80499 2.90249 7.25624
7.25624 5.80499 5.80499 4.35374 7.25624 4.35374 5.80499 5.80499 7.25624
4.35374 7.25624 4.35374 5.80499 5.80499 5.80499 5.80499 4.35374 8.70748
5.80499 4.35374 5.80499 5.80499 4.35374 5.80499 5.80499 5.80499 5.80499
5.80499 5.80499 5.80499 5.80499 5.80499 4.35374 5.80499 2.90249 8.70748
5.80499 5.80499 5.80499 5.80499 4.35374 5.80499 5.80499 5.80499 5.80499
5.80499 5.80499 5.80499 5.80499 4.35374 5.80499 5.80499 4.35374 7.25624
7.25624 4.35374;
#X coords 0 100 99 0 200 140 1;
#X restore 692 686 graph;
#N canvas 264 335 568 475 timegraph 0;
#X obj 111 257 list store;
#X obj 117 300 list split 100;
#X msg 148 105 0 0 0 0 0 0 0 0 0 0 0 0 0 0 0 0 0 0 0 0 0 0 0 0 0 0
0 0 0 0 0 0 0 0 0 0 0 0 0 0 0 0 0 0 0 0 0 0 0 0 0 0 0 0 0 0 0 0 0 0
0 0 0 0 0 0 0 0 0 0 0 0 0 0 0 0 0 0 0 0 0 0 0 0 0 0 0 0 0 0 0 0 0 0
0 0 0 0 0 0;
#X obj 54 178 moses 0;
#X obj 78 215 moses 101;
#X obj 57 59 inlet;
#X obj 173 53 loadbang;
#X obj 123 353 outlet;
#X connect 0 0 1 0;
#X connect 1 0 0 1;
#X connect 1 0 7 0;
#X connect 2 0 0 1;
#X connect 2 0 7 0;
#X connect 3 1 4 0;
#X connect 4 0 0 0;
#X connect 5 0 3 0;
#X connect 6 0 2 0;
#X restore 898 787 pd timegraph;
#X obj 898 811 array set rawtime;
#X obj 104 581 outlet;
#X obj 301 39 inlet;
#X floatatom 241 831 7 0 0 0 - - -;
#X floatatom 291 831 7 0 0 0 - - -;
#X floatatom 341 831 7 0 0 0 - - -;
#X floatatom 391 831 7 0 0 0 - - -;
#X floatatom 591 831 7 0 0 0 - - -;
#X floatatom 641 831 7 0 0 0 - - -;
#X floatatom 441 831 7 0 0 0 - - -;
#X floatatom 491 831 7 0 0 0 - - -;
#X floatatom 541 831 7 0 0 0 - - -;
#X floatatom 191 831 7 0 0 0 - - -;
#X floatatom 141 831 7 0 0 0 - - -;
#X obj 251 451 netreceive -u -b;
#X text 358 452 UDP packets \, binary output, f 13;
#X obj 251 472 oscparse;
#N canvas 1168 510 399 333 cook_touch_sopranino 0;
#X obj 101 37 inlet;
#X obj 180 92 unpack f f;
#N canvas 1423 301 708 912 bytetobits 0;
#X obj 98 187 / 2;
#X obj 129 187 % 2;
#X floatatom 98 227 5 0 0 0 - - -;
#X obj 98 207 i;
#X obj 98 271 / 2;
#X obj 98 292 i;
#X obj 131 269 % 2;
#X floatatom 98 311 5 0 0 0 - - -;
#X obj 99 358 / 2;
#X obj 126 358 % 2;
#X obj 99 378 i;
#X floatatom 98 398 5 0 0 0 - - -;
#X obj 98 439 / 2;
#X obj 125 439 % 2;
#X obj 98 461 i;
#X floatatom 97 483 5 0 0 0 - - -;
#X obj 97 522 / 2;
#X obj 124 522 % 2;
#X obj 97 542 i;
#X floatatom 97 562 5 0 0 0 - - -;
#X obj 97 600 / 2;
#X obj 124 600 % 2;
#X obj 97 619 i;
#X floatatom 96 639 5 0 0 0 - - -;
#X obj 96 677 / 2;
#X obj 123 677 % 2;
#X obj 96 696 i;
#X floatatom 97 718 5 0 0 0 - - -;
#X obj 97 739 % 2;
#X obj 98 334 t f f;
#X obj 98 418 t f f;
#X obj 97 502 t f f;
#X obj 97 580 t f f;
#X obj 97 657 t f f;
#X obj 98 247 t f f;
#X obj 148 56 inlet;
#X obj 257 796 pack f f f f f f f f;
#X obj 257 773 f;
#X obj 257 842 outlet;
#X obj 148 126 t b f f;
#X obj 148 81 moses 0;
#X obj 148 104 moses 256;
#X obj 395 843 list;
#X obj 395 864 outlet;
#X obj 395 66 inlet;
#X text 408 88 bang to output last conversion;
#X connect 0 0 3 0;
#X connect 1 0 36 7;
#X connect 2 0 34 0;
#X connect 3 0 2 0;
#X connect 4 0 5 0;
#X connect 5 0 7 0;
#X connect 6 0 36 6;
#X connect 7 0 29 0;
#X connect 8 0 10 0;
#X connect 9 0 36 5;
#X connect 10 0 11 0;
#X connect 11 0 30 0;
#X connect 12 0 14 0;
#X connect 13 0 36 4;
#X connect 14 0 15 0;
#X connect 15 0 31 0;
#X connect 16 0 18 0;
#X connect 17 0 36 3;
#X connect 18 0 19 0;
#X connect 19 0 32 0;
#X connect 20 0 22 0;
#X connect 21 0 36 2;
#X connect 22 0 23 0;
#X connect 23 0 33 0;
#X connect 24 0 26 0;
#X connect 25 0 36 1;
#X connect 26 0 27 0;
#X connect 27 0 28 0;
#X connect 28 0 37 1;
#X connect 29 0 8 0;
#X connect 29 1 9 0;
#X connect 30 0 12 0;
#X connect 30 1 13 0;
#X connect 31 0 16 0;
#X connect 31 1 17 0;
#X connect 32 0 20 0;
#X connect 32 1 21 0;
#X connect 33 0 24 0;
#X connect 33 1 25 0;
#X connect 34 0 4 0;
#X connect 34 1 6 0;
#X connect 35 0 40 0;
#X connect 36 0 38 0;
#X connect 36 0 42 1;
#X connect 37 0 36 0;
#X connect 39 0 37 0;
#X connect 39 1 0 0;
#X connect 39 2 1 0;
#X connect 40 1 41 0;
#X connect 41 0 39 0;
#X connect 42 0 43 0;
#X connect 44 0 42 0;
#X restore 84 182 pd bytetobits;
#X text 301 161 CHIP 1;
#X text 46 157 CHIP 2;
#N canvas 1423 301 708 912 bytetobits 0;
#X obj 98 187 / 2;
#X obj 129 187 % 2;
#X floatatom 98 227 5 0 0 0 - - -;
#X obj 98 207 i;
#X obj 98 271 / 2;
#X obj 98 292 i;
#X obj 131 269 % 2;
#X floatatom 98 311 5 0 0 0 - - -;
#X obj 99 358 / 2;
#X obj 126 358 % 2;
#X obj 99 378 i;
#X floatatom 98 398 5 0 0 0 - - -;
#X obj 98 439 / 2;
#X obj 125 439 % 2;
#X obj 98 461 i;
#X floatatom 97 483 5 0 0 0 - - -;
#X obj 97 522 / 2;
#X obj 124 522 % 2;
#X obj 97 542 i;
#X floatatom 97 562 5 0 0 0 - - -;
#X obj 97 600 / 2;
#X obj 124 600 % 2;
#X obj 97 619 i;
#X floatatom 96 639 5 0 0 0 - - -;
#X obj 96 677 / 2;
#X obj 123 677 % 2;
#X obj 96 696 i;
#X floatatom 97 718 5 0 0 0 - - -;
#X obj 97 739 % 2;
#X obj 98 334 t f f;
#X obj 98 418 t f f;
#X obj 97 502 t f f;
#X obj 97 580 t f f;
#X obj 97 657 t f f;
#X obj 98 247 t f f;
#X obj 148 56 inlet;
#X obj 257 796 pack f f f f f f f f;
#X obj 257 773 f;
#X obj 257 842 outlet;
#X obj 148 126 t b f f;
#X obj 148 81 moses 0;
#X obj 148 104 moses 256;
#X obj 395 843 list;
#X obj 395 864 outlet;
#X obj 395 66 inlet;
#X text 408 88 bang to output last conversion;
#X connect 0 0 3 0;
#X connect 1 0 36 7;
#X connect 2 0 34 0;
#X connect 3 0 2 0;
#X connect 4 0 5 0;
#X connect 5 0 7 0;
#X connect 6 0 36 6;
#X connect 7 0 29 0;
#X connect 8 0 10 0;
#X connect 9 0 36 5;
#X connect 10 0 11 0;
#X connect 11 0 30 0;
#X connect 12 0 14 0;
#X connect 13 0 36 4;
#X connect 14 0 15 0;
#X connect 15 0 31 0;
#X connect 16 0 18 0;
#X connect 17 0 36 3;
#X connect 18 0 19 0;
#X connect 19 0 32 0;
#X connect 20 0 22 0;
#X connect 21 0 36 2;
#X connect 22 0 23 0;
#X connect 23 0 33 0;
#X connect 24 0 26 0;
#X connect 25 0 36 1;
#X connect 26 0 27 0;
#X connect 27 0 28 0;
#X connect 28 0 37 1;
#X connect 29 0 8 0;
#X connect 29 1 9 0;
#X connect 30 0 12 0;
#X connect 30 1 13 0;
#X connect 31 0 16 0;
#X connect 31 1 17 0;
#X connect 32 0 20 0;
#X connect 32 1 21 0;
#X connect 33 0 24 0;
#X connect 33 1 25 0;
#X connect 34 0 4 0;
#X connect 34 1 6 0;
#X connect 35 0 40 0;
#X connect 36 0 38 0;
#X connect 36 0 42 1;
#X connect 37 0 36 0;
#X connect 39 0 37 0;
#X connect 39 1 0 0;
#X connect 39 2 1 0;
#X connect 40 1 41 0;
#X connect 41 0 39 0;
#X connect 42 0 43 0;
#X connect 44 0 42 0;
#X restore 224 182 pd bytetobits;
#X obj 103 64 t b b l;
#X obj 159 236 list;
#X obj 159 270 outlet;
#X connect 0 0 6 0;
#X connect 1 0 5 0;
#X connect 1 1 2 0;
#X connect 2 1 7 0;
#X connect 5 1 7 1;
#X connect 6 0 2 1;
#X connect 6 1 5 1;
#X connect 6 2 1 0;
#X connect 7 0 8 0;
#X restore 109 623 pd cook_touch_sopranino;
#X text 339 218 port to receive messages;
#X msg 251 396 listen \$1;
#X floatatom 300 219 6 0 0 0 - - -;
#X obj 144 18 loadbang;
#X obj 262 623 unpack f f f;
#X obj 342 623 unpack f f f;
#X obj 423 623 unpack f f f;
#X obj 181 472 s rawtimer;
#X obj 635 140 tgl 25 0 scalibrate calibrate Calibrate -14 38 0 10
-262144 -1 -1 0 1;
#X obj 528 109 tgl 20 0 empty empty touch_mask -2 -8 0 10 -262144 -1
-1 0 1;
#N canvas 665 26 860 822 masks 0;
#X obj 307 252 cnv 15 35 155 empty empty empty 20 12 0 14 -233017 -66577
0;
#X obj 280 12 inlet;
#X obj 280 33 sel 1 0;
#X msg 313 85 255 255;
#X obj 256 116 unpack f f;
#X obj 376 789 outlet;
#X obj 307 252 tgl 15 0 empty empty empty 17 7 0 10 -262144 -1 -1 1
1;
#X obj 307 272 tgl 15 0 empty empty empty 17 7 0 10 -262144 -1 -1 1
1;
#X obj 327 252 tgl 15 0 empty empty empty 17 7 0 10 -262144 -1 -1 1
1;
#X obj 327 272 tgl 15 0 empty empty empty 17 7 0 10 -262144 -1 -1 1
1;
#X obj 307 292 tgl 15 0 empty empty empty 17 7 0 10 -262144 -1 -1 1
1;
#X obj 307 312 tgl 15 0 empty empty empty 17 7 0 10 -262144 -1 -1 1
1;
#X obj 327 292 tgl 15 0 empty empty empty 17 7 0 10 -262144 -1 -1 1
1;
#X obj 327 312 tgl 15 0 empty empty empty 17 7 0 10 -262144 -1 -1 1
1;
#X obj 307 332 tgl 15 0 empty empty empty 17 7 0 10 -262144 -1 -1 1
1;
#X obj 307 352 tgl 15 0 empty empty empty 17 7 0 10 -262144 -1 -1 1
1;
#X obj 327 332 tgl 15 0 empty empty empty 17 7 0 10 -262144 -1 -1 1
1;
#X obj 327 352 tgl 15 0 empty empty empty 17 7 0 10 -262144 -1 -1 1
1;
#X obj 307 372 tgl 15 0 empty empty empty 17 7 0 10 -262144 -1 -1 1
1;
#X obj 307 392 tgl 15 0 empty empty empty 17 7 0 10 -262144 -1 -1 1
1;
#X obj 327 372 tgl 15 0 empty empty empty 17 7 0 10 -262144 -1 -1 1
1;
#X obj 327 392 tgl 15 0 empty empty empty 17 7 0 10 -262144 -1 -1 1
1;
#N canvas 1423 301 708 912 bytetobits 0;
#X obj 98 187 / 2;
#X obj 129 187 % 2;
#X floatatom 98 227 5 0 0 0 - - -;
#X obj 98 207 i;
#X obj 98 271 / 2;
#X obj 98 292 i;
#X obj 131 269 % 2;
#X floatatom 98 311 5 0 0 0 - - -;
#X obj 99 358 / 2;
#X obj 126 358 % 2;
#X obj 99 378 i;
#X floatatom 98 398 5 0 0 0 - - -;
#X obj 98 439 / 2;
#X obj 125 439 % 2;
#X obj 98 461 i;
#X floatatom 97 483 5 0 0 0 - - -;
#X obj 97 522 / 2;
#X obj 124 522 % 2;
#X obj 97 542 i;
#X floatatom 97 562 5 0 0 0 - - -;
#X obj 97 600 / 2;
#X obj 124 600 % 2;
#X obj 97 619 i;
#X floatatom 96 639 5 0 0 0 - - -;
#X obj 96 677 / 2;
#X obj 123 677 % 2;
#X obj 96 696 i;
#X floatatom 97 718 5 0 0 0 - - -;
#X obj 97 739 % 2;
#X obj 98 334 t f f;
#X obj 98 418 t f f;
#X obj 97 502 t f f;
#X obj 97 580 t f f;
#X obj 97 657 t f f;
#X obj 98 247 t f f;
#X obj 148 56 inlet;
#X obj 257 796 pack f f f f f f f f;
#X obj 257 773 f;
#X obj 257 842 outlet;
#X obj 148 126 t b f f;
#X obj 148 81 moses 0;
#X obj 148 104 moses 256;
#X obj 395 843 list;
#X obj 395 864 outlet;
#X obj 395 66 inlet;
#X text 408 88 bang to output last conversion;
#X connect 0 0 3 0;
#X connect 1 0 36 7;
#X connect 2 0 34 0;
#X connect 3 0 2 0;
#X connect 4 0 5 0;
#X connect 5 0 7 0;
#X connect 6 0 36 6;
#X connect 7 0 29 0;
#X connect 8 0 10 0;
#X connect 9 0 36 5;
#X connect 10 0 11 0;
#X connect 11 0 30 0;
#X connect 12 0 14 0;
#X connect 13 0 36 4;
#X connect 14 0 15 0;
#X connect 15 0 31 0;
#X connect 16 0 18 0;
#X connect 17 0 36 3;
#X connect 18 0 19 0;
#X connect 19 0 32 0;
#X connect 20 0 22 0;
#X connect 21 0 36 2;
#X connect 22 0 23 0;
#X connect 23 0 33 0;
#X connect 24 0 26 0;
#X connect 25 0 36 1;
#X connect 26 0 27 0;
#X connect 27 0 28 0;
#X connect 28 0 37 1;
#X connect 29 0 8 0;
#X connect 29 1 9 0;
#X connect 30 0 12 0;
#X connect 30 1 13 0;
#X connect 31 0 16 0;
#X connect 31 1 17 0;
#X connect 32 0 20 0;
#X connect 32 1 21 0;
#X connect 33 0 24 0;
#X connect 33 1 25 0;
#X connect 34 0 4 0;
#X connect 34 1 6 0;
#X connect 35 0 40 0;
#X connect 36 0 38 0;
#X connect 36 0 42 1;
#X connect 37 0 36 0;
#X connect 39 0 37 0;
#X connect 39 1 0 0;
#X connect 39 2 1 0;
#X connect 40 1 41 0;
#X connect 41 0 39 0;
#X connect 42 0 43 0;
#X connect 44 0 42 0;
#X restore 222 149 pd bytetobits;
#N canvas 1423 301 708 912 bytetobits 0;
#X obj 98 187 / 2;
#X obj 129 187 % 2;
#X floatatom 98 227 5 0 0 0 - - -;
#X obj 98 207 i;
#X obj 98 271 / 2;
#X obj 98 292 i;
#X obj 131 269 % 2;
#X floatatom 98 311 5 0 0 0 - - -;
#X obj 99 358 / 2;
#X obj 126 358 % 2;
#X obj 99 378 i;
#X floatatom 98 398 5 0 0 0 - - -;
#X obj 98 439 / 2;
#X obj 125 439 % 2;
#X obj 98 461 i;
#X floatatom 97 483 5 0 0 0 - - -;
#X obj 97 522 / 2;
#X obj 124 522 % 2;
#X obj 97 542 i;
#X floatatom 97 562 5 0 0 0 - - -;
#X obj 97 600 / 2;
#X obj 124 600 % 2;
#X obj 97 619 i;
#X floatatom 96 639 5 0 0 0 - - -;
#X obj 96 677 / 2;
#X obj 123 677 % 2;
#X obj 96 696 i;
#X floatatom 97 718 5 0 0 0 - - -;
#X obj 97 739 % 2;
#X obj 98 334 t f f;
#X obj 98 418 t f f;
#X obj 97 502 t f f;
#X obj 97 580 t f f;
#X obj 97 657 t f f;
#X obj 98 247 t f f;
#X obj 148 56 inlet;
#X obj 257 796 pack f f f f f f f f;
#X obj 257 773 f;
#X obj 257 842 outlet;
#X obj 148 126 t b f f;
#X obj 148 81 moses 0;
#X obj 148 104 moses 256;
#X obj 395 843 list;
#X obj 395 864 outlet;
#X obj 395 66 inlet;
#X text 408 88 bang to output last conversion;
#X connect 0 0 3 0;
#X connect 1 0 36 7;
#X connect 2 0 34 0;
#X connect 3 0 2 0;
#X connect 4 0 5 0;
#X connect 5 0 7 0;
#X connect 6 0 36 6;
#X connect 7 0 29 0;
#X connect 8 0 10 0;
#X connect 9 0 36 5;
#X connect 10 0 11 0;
#X connect 11 0 30 0;
#X connect 12 0 14 0;
#X connect 13 0 36 4;
#X connect 14 0 15 0;
#X connect 15 0 31 0;
#X connect 16 0 18 0;
#X connect 17 0 36 3;
#X connect 18 0 19 0;
#X connect 19 0 32 0;
#X connect 20 0 22 0;
#X connect 21 0 36 2;
#X connect 22 0 23 0;
#X connect 23 0 33 0;
#X connect 24 0 26 0;
#X connect 25 0 36 1;
#X connect 26 0 27 0;
#X connect 27 0 28 0;
#X connect 28 0 37 1;
#X connect 29 0 8 0;
#X connect 29 1 9 0;
#X connect 30 0 12 0;
#X connect 30 1 13 0;
#X connect 31 0 16 0;
#X connect 31 1 17 0;
#X connect 32 0 20 0;
#X connect 32 1 21 0;
#X connect 33 0 24 0;
#X connect 33 1 25 0;
#X connect 34 0 4 0;
#X connect 34 1 6 0;
#X connect 35 0 40 0;
#X connect 36 0 38 0;
#X connect 36 0 42 1;
#X connect 37 0 36 0;
#X connect 39 0 37 0;
#X connect 39 1 0 0;
#X connect 39 2 1 0;
#X connect 40 1 41 0;
#X connect 41 0 39 0;
#X connect 42 0 43 0;
#X connect 44 0 42 0;
#X restore 313 149 pd bytetobits;
#X obj 186 186 unpack f f f f f f f f;
#X obj 326 186 unpack f f f f f f f f;
#N canvas 519 124 692 867 bitstobyte 0;
#X floatatom 184 76 5 0 0 0 - - -;
#X floatatom 185 166 5 0 0 0 - - -;
#X obj 135 113 * 2;
#X floatatom 187 250 5 0 0 0 - - -;
#X obj 137 197 * 2;
#X floatatom 189 331 5 0 0 0 - - -;
#X obj 139 278 * 2;
#X floatatom 197 413 5 0 0 0 - - -;
#X obj 142 359 * 2;
#X floatatom 189 486 5 0 0 0 - - -;
#X obj 139 433 * 2;
#X floatatom 187 565 5 0 0 0 - - -;
#X obj 137 512 * 2;
#X floatatom 183 644 5 0 0 0 - - -;
#X obj 133 591 * 2;
#X obj 135 140 pow 1;
#X obj 137 224 pow 2;
#X obj 139 305 pow 3;
#X obj 142 386 pow 4;
#X obj 139 460 pow 5;
#X obj 137 539 pow 6;
#X obj 133 618 pow 7;
#X obj 224 209 +;
#X obj 223 285 +;
#X obj 223 355 +;
#X obj 235 439 +;
#X obj 229 507 +;
#X obj 225 588 +;
#X obj 230 662 +;
#X obj 20 21 inlet;
#X obj 229 693 outlet;
#X obj 20 52 unpack f f f f f f f f;
#X connect 0 0 22 1;
#X connect 1 0 22 0;
#X connect 2 0 15 0;
#X connect 3 0 23 0;
#X connect 4 0 16 0;
#X connect 5 0 24 0;
#X connect 6 0 17 0;
#X connect 7 0 25 0;
#X connect 8 0 18 0;
#X connect 9 0 26 0;
#X connect 10 0 19 0;
#X connect 11 0 27 0;
#X connect 12 0 20 0;
#X connect 13 0 28 0;
#X connect 14 0 21 0;
#X connect 15 0 1 0;
#X connect 16 0 3 0;
#X connect 17 0 5 0;
#X connect 18 0 7 0;
#X connect 19 0 9 0;
#X connect 20 0 11 0;
#X connect 21 0 13 0;
#X connect 22 0 23 1;
#X connect 23 0 24 1;
#X connect 24 0 25 1;
#X connect 25 0 26 1;
#X connect 26 0 27 1;
#X connect 27 0 28 1;
#X connect 28 0 30 0;
#X connect 29 0 31 0;
#X connect 31 0 14 0;
#X connect 31 1 12 0;
#X connect 31 2 10 0;
#X connect 31 3 8 0;
#X connect 31 4 6 0;
#X connect 31 5 4 0;
#X connect 31 6 2 0;
#X connect 31 7 0 0;
#X restore 394 686 pd bitstobyte;
#X obj 394 660 pack f f f f f f f f, f 45;
#X obj 490 614 t b f;
#X obj 454 614 t b f;
#X obj 418 614 t b f;
#X obj 634 614 t b f;
#X obj 598 614 t b f;
#X obj 562 614 t b f;
#X obj 526 614 t b f;
#N canvas 494 74 692 867 bitstobyte 0;
#X floatatom 184 76 5 0 0 0 - - -;
#X floatatom 185 166 5 0 0 0 - - -;
#X obj 135 113 * 2;
#X floatatom 187 250 5 0 0 0 - - -;
#X obj 137 197 * 2;
#X floatatom 189 331 5 0 0 0 - - -;
#X obj 139 278 * 2;
#X floatatom 197 413 5 0 0 0 - - -;
#X obj 142 359 * 2;
#X floatatom 189 486 5 0 0 0 - - -;
#X obj 139 433 * 2;
#X floatatom 187 565 5 0 0 0 - - -;
#X obj 137 512 * 2;
#X floatatom 183 644 5 0 0 0 - - -;
#X obj 133 591 * 2;
#X obj 135 140 pow 1;
#X obj 137 224 pow 2;
#X obj 139 305 pow 3;
#X obj 142 386 pow 4;
#X obj 139 460 pow 5;
#X obj 137 539 pow 6;
#X obj 133 618 pow 7;
#X obj 224 209 +;
#X obj 223 285 +;
#X obj 223 355 +;
#X obj 235 439 +;
#X obj 229 507 +;
#X obj 225 588 +;
#X obj 230 662 +;
#X obj 20 21 inlet;
#X obj 229 693 outlet;
#X obj 20 52 unpack f f f f f f f f;
#X connect 0 0 22 1;
#X connect 1 0 22 0;
#X connect 2 0 15 0;
#X connect 3 0 23 0;
#X connect 4 0 16 0;
#X connect 5 0 24 0;
#X connect 6 0 17 0;
#X connect 7 0 25 0;
#X connect 8 0 18 0;
#X connect 9 0 26 0;
#X connect 10 0 19 0;
#X connect 11 0 27 0;
#X connect 12 0 20 0;
#X connect 13 0 28 0;
#X connect 14 0 21 0;
#X connect 15 0 1 0;
#X connect 16 0 3 0;
#X connect 17 0 5 0;
#X connect 18 0 7 0;
#X connect 19 0 9 0;
#X connect 20 0 11 0;
#X connect 21 0 13 0;
#X connect 22 0 23 1;
#X connect 23 0 24 1;
#X connect 24 0 25 1;
#X connect 25 0 26 1;
#X connect 26 0 27 1;
#X connect 27 0 28 1;
#X connect 28 0 30 0;
#X connect 29 0 31 0;
#X connect 31 0 14 0;
#X connect 31 1 12 0;
#X connect 31 2 10 0;
#X connect 31 3 8 0;
#X connect 31 4 6 0;
#X connect 31 5 4 0;
#X connect 31 6 2 0;
#X connect 31 7 0 0;
#X restore 117 686 pd bitstobyte;
#X obj 117 660 pack f f f f f f f f, f 45;
#X obj 213 614 t b f;
#X obj 177 614 t b f;
#X obj 141 614 t b f;
#X obj 357 614 t b f;
#X obj 321 614 t b f;
#X obj 285 614 t b f;
#X obj 249 614 t b f;
#X obj 376 745 pack f f;
#X obj 137 474 i;
#X obj 163 474 i;
#X obj 137 557 i;
#X obj 163 557 i;
#X obj 188 474 i;
#X obj 214 474 i;
#X obj 188 557 i;
#X obj 214 557 i;
#X obj 240 474 i;
#X obj 266 474 i;
#X obj 240 557 i;
#X obj 266 557 i;
#X obj 291 474 i;
#X obj 317 474 i;
#X obj 291 557 i;
#X obj 317 557 i;
#X obj 417 474 i;
#X obj 443 474 i;
#X obj 417 557 i;
#X obj 443 557 i;
#X obj 468 474 i;
#X obj 494 474 i;
#X obj 468 557 i;
#X obj 494 557 i;
#X obj 520 474 i;
#X obj 546 474 i;
#X obj 520 557 i;
#X obj 546 557 i;
#X obj 571 474 i;
#X obj 597 474 i;
#X obj 571 557 i;
#X obj 597 557 i;
#X text 610 507 patchcords flipped due to position;
#X text 611 522 of capsense inside of Sopranino;
#X obj 394 719 t b f;
#X obj 130 97 r touchdata1;
#X obj 387 96 r touchdata2;
#X msg 256 85 0 0;
#N canvas 573 238 283 254 debounce 0;
#X obj 129 31 inlet;
#X obj 136 131 outlet;
#X obj 91 74 delay 200;
#X obj 136 101 list;
#X obj 129 52 t b l;
#X connect 0 0 4 0;
#X connect 2 0 3 0;
#X connect 3 0 1 0;
#X connect 4 0 2 0;
#X connect 4 1 3 1;
#X restore 376 766 pd debounce;
#X connect 1 0 2 0;
#X connect 2 0 82 0;
#X connect 2 1 3 0;
#X connect 3 0 4 0;
#X connect 4 0 22 0;
#X connect 4 1 23 0;
#X connect 6 0 58 0;
#X connect 7 0 57 0;
#X connect 8 0 74 0;
#X connect 9 0 73 0;
#X connect 10 0 54 0;
#X connect 11 0 53 0;
#X connect 12 0 70 0;
#X connect 13 0 69 0;
#X connect 14 0 50 0;
#X connect 15 0 49 0;
#X connect 16 0 66 0;
#X connect 17 0 65 0;
#X connect 18 0 46 0;
#X connect 19 0 45 0;
#X connect 20 0 62 0;
#X connect 21 0 61 0;
#X connect 22 0 24 0;
#X connect 23 0 25 0;
#X connect 24 0 19 0;
#X connect 24 1 18 0;
#X connect 24 2 15 0;
#X connect 24 3 14 0;
#X connect 24 4 11 0;
#X connect 24 5 10 0;
#X connect 24 6 7 0;
#X connect 24 7 6 0;
#X connect 25 0 21 0;
#X connect 25 1 20 0;
#X connect 25 2 17 0;
#X connect 25 3 16 0;
#X connect 25 4 13 0;
#X connect 25 5 12 0;
#X connect 25 6 9 0;
#X connect 25 7 8 0;
#X connect 26 0 44 0;
#X connect 27 0 26 0;
#X connect 28 0 27 0;
#X connect 28 1 27 3;
#X connect 29 0 27 0;
#X connect 29 1 27 2;
#X connect 30 0 27 0;
#X connect 30 1 27 1;
#X connect 31 0 27 0;
#X connect 31 1 27 7;
#X connect 32 0 27 0;
#X connect 32 1 27 6;
#X connect 33 0 27 0;
#X connect 33 1 27 5;
#X connect 34 0 27 0;
#X connect 34 1 27 4;
#X connect 35 0 79 0;
#X connect 36 0 35 0;
#X connect 37 0 36 0;
#X connect 37 1 36 3;
#X connect 38 0 36 0;
#X connect 38 1 36 2;
#X connect 39 0 36 0;
#X connect 39 1 36 1;
#X connect 40 0 36 0;
#X connect 40 1 36 7;
#X connect 41 0 36 0;
#X connect 41 1 36 6;
#X connect 42 0 36 0;
#X connect 42 1 36 5;
#X connect 43 0 36 0;
#X connect 43 1 36 4;
#X connect 44 0 83 0;
#X connect 45 0 47 0;
#X connect 46 0 52 0;
#X connect 47 0 36 0;
#X connect 48 0 39 0;
#X connect 49 0 55 0;
#X connect 50 0 48 0;
#X connect 51 0 38 0;
#X connect 52 0 37 0;
#X connect 53 0 59 0;
#X connect 54 0 56 0;
#X connect 55 0 43 0;
#X connect 56 0 42 0;
#X connect 57 0 51 0;
#X connect 58 0 60 0;
#X connect 59 0 41 0;
#X connect 60 0 40 0;
#X connect 61 0 63 0;
#X connect 62 0 68 0;
#X connect 63 0 27 0;
#X connect 64 0 30 0;
#X connect 65 0 71 0;
#X connect 66 0 64 0;
#X connect 67 0 29 0;
#X connect 68 0 28 0;
#X connect 69 0 75 0;
#X connect 70 0 72 0;
#X connect 71 0 34 0;
#X connect 72 0 33 0;
#X connect 73 0 67 0;
#X connect 74 0 76 0;
#X connect 75 0 32 0;
#X connect 76 0 31 0;
#X connect 79 0 44 0;
#X connect 79 1 44 1;
#X connect 80 0 22 0;
#X connect 81 0 23 0;
#X connect 82 0 4 0;
#X connect 83 0 5 0;
#X coords 0 -1 1 1 39 159 2 305 250;
#X restore 528 135 pd masks;
#X msg 534 435 disconnect;
#X obj 530 480 netsend -u -b;
#X obj 626 406 pack s f;
#X symbolatom 300 137 20 0 0 2 T-Stick_IP - -;
#X floatatom 430 137 5 0 0 2 port - -;
#X obj 656 386 i;
#X obj 626 366 t b f;
#X text 600 184 Pressure sensor;
#X floatatom 613 203 5 0 0 0 - - -;
#X floatatom 651 203 5 0 0 0 - - -;
#X text 602 223 calibration data;
#X obj 602 116 bng 15 250 50 0 empty empty Write 17 7 0 10 -262144
-1 -1;
#X obj 654 116 bng 15 250 50 0 empty empty Read 17 7 0 10 -262144 -1
-1;
#X text 601 96 T-Stick memory;
#X obj 144 80 unpack s f;
#X obj 251 493 route list;
#X msg 98 79 8000;
#X obj 301 172 tgl 25 0 empty empty Receive_OSC_messages 30 14 0 14
-262144 -1 -1 1 1;
#X obj 246 197 sel 1;
#X msg 520 31 0;
#X obj 105 39 t 1 b b;
#X obj 32 79 delay 500;
#X obj 636 588 unpack f f f f;
#X floatatom 600 629 10 0 0 0 - - -;
#X floatatom 666 629 10 0 0 0 - - -;
#X floatatom 732 629 10 0 0 0 - - -;
#X floatatom 798 629 10 0 0 0 - - -;
#X text 289 859 Touch: 0 or 1 for each sensor (16 in the T-Stick Sopranino)
;
#X text 289 927 Pressure: from 0 to 4095;
#X text 289 944 Piezo: from 0 to 715;
#X obj 238 588 route capsense accl gyro magn fsr piezo, f 62;
#X text 645 569 Quaternions;
#X text 797 933 Edu Meneses - IDMIL - Nov/2019;
#X obj 428 340 oscformat state touchMask;
#X obj 445 407 list prepend send;
#X obj 445 431 list trim;
#X obj 105 11 bng 15 250 50 0 empty empty empty 17 7 0 10 -262144 -1
-1;
#X obj 586 340 oscformat state json;
#X msg 606 312 1;
#X msg 651 311 2;
#N canvas 0 22 450 278 (subpatch) 0;
#X array Touch 16 float 1;
#A 0 1 1 1 1 0 1 1 1 1 1 1 1 1 1 1 1;
#X coords 0 2 15 -1 120 140 1;
#X restore 16 686 graph;
#X obj 251 515 route raw orientation ypr info;
#X obj 383 555 s info;
#X obj 751 120 r info;
#X obj 751 145 unpack f f f f f f f;
#X obj 723 221 s serial;
#X obj 738 201 s firmware;
#X obj 805 221 s calibrate;
#X obj 878 221 s touchdata1;
#X obj 887 201 s touchdata2;
#X obj 626 454 list trim;
#X obj 468 137 tgl 15 0 empty empty empty 17 7 0 10 -262144 -1 -1 0
1;
#X obj 377 42 sel 1 0;
#X obj 362 65 t b b;
#X obj 626 431 list prepend connect;
#X obj 289 328 oscformat state info;
#X msg 289 309 1;
#X floatatom 302 268 7 0 0 3 Serial_number serial sserial;
#X floatatom 402 268 7 0 0 3 Firmware_version firmware sfirmware;
#X obj 303 248 bng 15 250 50 0 empty empty Get_T-Stick_info 17 7 0
10 -262144 -1 -1;
#X obj 590 276 bng 15 250 50 0 empty empty empty 17 7 0 10 -262144
-1 -1;
#X text 608 268 sync calibration;
#X text 608 281 settings;
#X obj 741 326 f;
#X obj 741 349 pack 0 0 4095;
#X obj 741 370 oscformat state FSRcalibration;
#X obj 428 320 spigot;
#X obj 210 310 delay 1000;
#X msg 248 287 0;
#X msg 210 331 1;
#X obj 209 263 t b b b;
#N canvas 696 227 721 509 visual_orientation 0;
#X obj 30 158 gemwin;
#X msg 30 83 0 \, destroy;
#X obj 296 328 gemhead;
#X obj 422 280 gemhead;
#X obj 422 318 world_light;
#X msg 131 109 reset \, dimen 800 600 \, lighting 1 \, create \, 1
;
#X obj 295 358 rotateXYZ 0 0 0;
#X obj 295 411 model;
#X msg 105 138 open T-Stick.obj;
#X obj 274 303 tgl 15 0 empty empty empty 17 7 0 10 -262144 -1 -1 1
1;
#X obj 536 282 tgl 15 0 empty empty empty 17 7 0 10 -262144 -1 -1 0
1;
#X msg 536 302 debug \$1;
#X obj 422 299 rotateXYZ 0 40 0;
#X obj 276 242 loadbang;
#X msg 274 280 1;
#X obj 617 220 vsl 15 128 0 2 0 0 empty empty empty 0 -9 0 10 -262144
-1 -1 0 1;
#X obj 30 30 inlet;
#X obj 30 51 sel 0 1;
#X obj 400 150 inlet;
#X obj 400 171 unpack f f f;
#X text 637 321 zoom;
#X obj 617 39 inlet;
#X obj 617 66 moses 0;
#X obj 617 91 moses 2;
#X obj 295 383 scale 1.3;
#X obj 299 23 declare -lib Gem;
#X obj 104 83 t b b;
#X connect 1 0 0 0;
#X connect 2 0 6 0;
#X connect 3 0 12 0;
#X connect 5 0 0 0;
#X connect 6 0 24 0;
#X connect 8 0 7 0;
#X connect 9 0 4 0;
#X connect 10 0 11 0;
#X connect 11 0 4 0;
#X connect 12 0 4 0;
#X connect 13 0 14 0;
#X connect 14 0 9 0;
#X connect 15 0 24 1;
#X connect 16 0 17 0;
#X connect 17 0 1 0;
#X connect 17 1 26 0;
#X connect 18 0 19 0;
#X connect 19 0 6 1;
#X connect 19 0 12 1;
#X connect 19 1 6 2;
#X connect 19 2 6 3;
#X connect 19 2 12 2;
#X connect 21 0 22 0;
#X connect 22 1 23 0;
#X connect 23 0 15 0;
#X connect 24 0 7 0;
#X connect 26 0 8 0;
#X connect 26 1 5 0;
#X restore 510 543 pd visual_orientation;
#X obj 510 521 tgl 15 0 empty empty empty 17 7 0 10 -262144 -1 -1 0
1;
#X text 528 521 Click here to check orientation;
#X text 797 916 T-Stick Sopranino 2GW FW19111;
#X text 289 893 Gyro: floats +/-34.90659 rad/s (+/-2000dps);
#X text 289 876 Accel: ints from +/-32767 (+/-16g);
#X text 289 910 Mag: ints from +/-32767 (+/-8g);
#X msg 144 59 192.168.21.109 8888;
#X floatatom 939 497 10 0 0 0 - - -;
#X floatatom 1005 497 10 0 0 0 - - -;
#X floatatom 1071 497 10 0 0 0 - - -;
#X obj 975 456 unpack f f f;
#X obj 463 491 print;
#X text 997 437 YPR;
#X connect 2 0 32 0;
#X connect 3 0 31 0;
#X connect 4 0 22 0;
#X connect 5 0 23 0;
#X connect 6 0 24 0;
#X connect 7 0 25 0;
#X connect 8 0 26 0;
#X connect 9 0 27 0;
#X connect 10 0 28 0;
#X connect 11 0 29 0;
#X connect 12 0 30 0;
#X connect 13 0 14 0;
#X connect 14 0 18 0;
#X connect 15 0 13 0;
#X connect 15 1 13 1;
#X connect 16 0 15 0;
#X connect 18 0 19 0;
#X connect 21 0 65 0;
#X connect 33 0 35 0;
#X connect 33 0 44 0;
#X connect 35 0 63 0;
#X connect 36 0 1 0;
#X connect 38 0 33 0;
#X connect 39 0 38 0;
#X connect 40 0 67 0;
#X connect 40 0 68 0;
#X connect 41 0 2 0;
#X connect 41 1 3 0;
#X connect 41 2 4 0;
#X connect 42 0 5 0;
#X connect 42 1 6 0;
#X connect 42 2 7 0;
#X connect 43 0 10 0;
#X connect 43 1 11 0;
#X connect 43 2 12 0;
#X connect 45 0 111 1;
#X connect 46 0 47 0;
#X connect 47 0 114 0;
#X connect 48 0 49 0;
#X connect 50 0 102 0;
#X connect 51 0 50 0;
#X connect 52 0 54 0;
#X connect 53 0 50 1;
#X connect 54 0 50 0;
#X connect 54 1 53 0;
#X connect 56 0 112 1;
#X connect 57 0 112 2;
#X connect 59 0 86 0;
#X connect 60 0 87 0;
#X connect 62 0 51 0;
#X connect 62 1 52 0;
#X connect 63 0 89 0;
#X connect 63 0 20 0;
#X connect 64 0 39 0;
#X connect 65 0 66 0;
#X connect 66 0 39 0;
#X connect 66 1 38 0;
#X connect 67 0 46 0;
#X connect 68 0 69 0;
#X connect 68 1 64 0;
#X connect 68 2 126 0;
#X connect 69 0 65 0;
#X connect 70 0 71 0;
#X connect 70 1 72 0;
#X connect 70 2 73 0;
#X connect 70 3 74 0;
#X connect 78 0 36 0;
#X connect 78 1 41 0;
#X connect 78 2 42 0;
#X connect 78 3 43 0;
#X connect 78 4 8 0;
#X connect 78 5 9 0;
#X connect 81 0 82 0;
#X connect 82 0 83 0;
#X connect 83 0 49 0;
#X connect 84 0 68 0;
#X connect 85 0 82 0;
#X connect 86 0 85 0;
#X connect 87 0 85 0;
#X connect 89 0 78 0;
#X connect 89 1 70 0;
#X connect 89 2 130 0;
#X connect 89 2 119 1;
#X connect 89 3 90 0;
#X connect 91 0 92 0;
#X connect 92 0 93 0;
#X connect 92 1 94 0;
#X connect 92 2 95 0;
#X connect 92 3 56 0;
#X connect 92 4 57 0;
#X connect 92 5 96 0;
#X connect 92 6 97 0;
#X connect 98 0 49 0;
#X connect 99 0 100 0;
#X connect 100 0 101 0;
#X connect 100 1 48 0;
#X connect 101 0 52 0;
#X connect 101 1 51 0;
#X connect 102 0 98 0;
#X connect 103 0 82 0;
#X connect 104 0 103 0;
#X connect 107 0 118 0;
#X connect 108 0 111 0;
#X connect 111 0 112 0;
#X connect 112 0 113 0;
#X connect 113 0 82 0;
#X connect 114 0 81 0;
#X connect 115 0 117 0;
#X connect 116 0 114 1;
#X connect 117 0 114 1;
#X connect 118 0 115 0;
#X connect 118 1 104 0;
#X connect 118 2 116 0;
#X connect 120 0 119 0;
#X connect 126 0 62 0;
#X connect 130 0 127 0;
#X connect 130 1 128 0;
#X connect 130 2 129 0;
#X coords 0 -1 1 1 420 215 1 292 87;
